<?xml version="1.0" encoding="UTF-8" standalone="no"?>
<svg
   xmlns:dc="http://purl.org/dc/elements/1.1/"
   xmlns:cc="http://creativecommons.org/ns#"
   xmlns:rdf="http://www.w3.org/1999/02/22-rdf-syntax-ns#"
   xmlns:svg="http://www.w3.org/2000/svg"
   xmlns="http://www.w3.org/2000/svg"
   xmlns:xlink="http://www.w3.org/1999/xlink"
   id="svg8"
   version="1.1"
   viewBox="0 0 185.1485 118.2552"
   height="118.2552mm"
   width="185.1485mm">
  <defs
     id="defs2">
    <linearGradient
       id="linearGradient1469">
      <stop
         id="stop1465"
         offset="0"
         style="stop-color:#000000;stop-opacity:1;" />
      <stop
         id="stop1467"
         offset="1"
         style="stop-color:#000000;stop-opacity:0;" />
    </linearGradient>
    <linearGradient
       id="linearGradient1454">
      <stop
         id="stop1450"
         offset="0"
         style="stop-color:#000000;stop-opacity:1;" />
      <stop
         id="stop1452"
         offset="1"
         style="stop-color:#000000;stop-opacity:0;" />
    </linearGradient>
    <filter
       height="1.1440001"
       y="-0.071999997"
       width="1.1440001"
       x="-0.071999997"
       id="filter1356"
       style="color-interpolation-filters:sRGB">
      <feGaussianBlur
         id="feGaussianBlur1358"
         stdDeviation="2.9563797" />
    </filter>
    <filter
       id="filter1446"
       style="color-interpolation-filters:sRGB">
      <feColorMatrix
         id="feColorMatrix1422"
         values="1"
         result="result5"
         type="saturate" />
      <feFlood
         id="feFlood1424"
         flood-color="rgb(255,0,0)"
         result="result1" />
      <feComposite
         id="feComposite1426"
         in2="SourceGraphic"
         operator="in"
         result="fbSourceGraphic" />
      <feTurbulence
         id="feTurbulence1428"
         numOctaves="5"
         baseFrequency="0.035"
         type="fractalNoise" />
      <feColorMatrix
         id="feColorMatrix1430"
         result="result0"
         values="1 0 0 0 0 0 1 0 0 0 0 0 1 0 0 0 0 0 3 -1 " />
      <feFlood
         id="feFlood1432"
         flood-opacity="1"
         flood-color="rgb(0,177,71)"
         result="result1" />
      <feBlend
         id="feBlend1434"
         in2="fbSourceGraphic"
         mode="normal"
         in="result1"
         result="result2" />
      <feComposite
         id="feComposite1436"
         in2="result0"
         operator="out"
         result="result3" />
      <feComposite
         id="feComposite1438"
         in2="fbSourceGraphic"
         operator="atop" />
      <feColorMatrix
         id="feColorMatrix1440"
         values="0"
         type="hueRotate"
         result="result4" />
      <feBlend
         id="feBlend1442"
         in2="result5"
         mode="lighten" />
      <feColorMatrix
         id="feColorMatrix1444"
         values="0"
         type="hueRotate" />
    </filter>
    <linearGradient
       gradientTransform="translate(-40.188618,23.471172)"
       gradientUnits="userSpaceOnUse"
       y2="140.89584"
       x2="158.50812"
       y1="140.89584"
       x1="59.962128"
       id="linearGradient1456"
       xlink:href="#linearGradient1454" />
    <linearGradient
       gradientTransform="translate(-40.736982,106.81428)"
       gradientUnits="userSpaceOnUse"
       y2="67.175903"
       x2="170.14938"
       y1="67.175903"
       x1="163.41685"
       id="linearGradient1471"
       xlink:href="#linearGradient1469" />
  </defs>
  <metadata
     id="metadata5">
    <rdf:RDF>
      <cc:Work
         rdf:about="">
        <dc:format>image/svg+xml</dc:format>
        <dc:type
           rdf:resource="http://purl.org/dc/dcmitype/StillImage" />
        <dc:title></dc:title>
      </cc:Work>
    </rdf:RDF>
  </metadata>
  <g
     transform="translate(-16.663021,-81.76825)"
     id="layer1">
    <circle
       style="fill:#d4aa00;fill-opacity:1;stroke:none;stroke-width:0.13632846;stroke-opacity:1;filter:url(#filter1356)"
       id="circle982"
       cx="109.23512"
       cy="140.89584"
       r="49.272995" />
    <circle
       r="49.272995"
       cy="140.89584"
       cx="109.23512"
       id="circle864"
       style="fill:#d4aa00;fill-opacity:1;stroke:none;stroke-width:0.13632846;stroke-opacity:1;filter:url(#filter1446)" />
    <path
       id="path852"
       d="m 146.76291,108.952 c 0.69589,0.8164 1.36711,1.65728 2.01121,2.52233 a 21.516292,86.065166 75 0 1 43.59348,7.14613 21.516292,86.065166 75 0 1 -77.56355,43.05863 21.516292,86.065166 75 0 1 -88.701316,1.4919 21.516292,86.065166 75 0 1 34.182643,-28.00757 c 0.124808,-1.06301 0.284538,-2.11863 0.477484,-3.16564 a 23.906992,95.627967 75 0 0 -43.897508,33.64836 23.906992,95.627967 75 0 0 98.557417,-1.65796 23.906992,95.627967 75 0 0 86.18172,-47.84274 23.906992,95.627967 75 0 0 -54.84158,-7.19344 z m -86.626453,27.66424 a 20.440477,81.761906 75 0 0 -29.87725,25.44103 20.440477,81.761906 75 0 0 84.266383,-1.41743 20.440477,81.761906 75 0 0 73.68554,-40.90566 20.440477,81.761906 75 0 0 -38.5793,-7.07141 c 0.38109,0.54519 0.75098,1.09979 1.111,1.66253 a 19.009644,76.038574 75 0 1 31.93965,6.89028 19.009644,76.038574 75 0 1 -68.52724,38.0421 19.009644,76.038574 75 0 1 -78.367881,1.31833 19.009644,76.038574 75 0 1 24.217507,-21.96108 c 0.0308,-0.66848 0.07368,-1.33491 0.131591,-1.99869 z m 92.035233,-19.91537 c 0.17829,0.31692 0.35311,0.63646 0.5248,0.95825 a 16.424332,65.697327 75 0 1 19.99738,6.2329 16.424332,65.697327 75 0 1 -59.20777,32.86838 16.424332,65.697327 75 0 1 -67.709633,1.13903 16.424332,65.697327 75 0 1 14.201877,-15.38425 c -0.01217,-0.3606 -0.02001,-0.72091 -0.0242,-1.08062 a 17.108678,68.434714 75 0 0 -16.821709,17.17334 17.108678,68.434714 75 0 0 70.530875,-1.18612 17.108678,68.434714 75 0 0 61.67459,-34.23823 17.108678,68.434714 75 0 0 -23.16621,-6.48268 z"
       style="opacity:0.55;fill:#ffdd55;fill-opacity:1;stroke:none;stroke-width:0.13229166;stroke-opacity:1" />
    <circle
       transform="rotate(-15)"
       style="fill:url(#linearGradient1456);fill-opacity:1;stroke:none;stroke-width:0.13632846;stroke-opacity:1"
       id="circle1448"
       cx="69.046501"
       cy="164.36702"
       r="49.272995" />
  </g>
  <g
     transform="translate(-16.663021,-81.76825)"
     id="layer2">
    <circle
       r="3.3662651"
       cy="135.43831"
       cx="166.78313"
       id="path1461"
       style="opacity:0.55;fill:#c8b7b7;fill-opacity:1;stroke:none;stroke-width:0.26458332;stroke-opacity:1" />
    <circle
       transform="rotate(-15)"
       style="opacity:0.55;fill:url(#linearGradient1471);fill-opacity:1;stroke:none;stroke-width:0.26458332;stroke-opacity:1"
       id="circle1463"
       cx="126.04565"
       cy="173.99055"
       r="3.3662651" />
  </g>
</svg>
