<?xml version="1.0" encoding="UTF-8" standalone="no"?>
<svg
   xmlns:dc="http://purl.org/dc/elements/1.1/"
   xmlns:cc="http://creativecommons.org/ns#"
   xmlns:rdf="http://www.w3.org/1999/02/22-rdf-syntax-ns#"
   xmlns:svg="http://www.w3.org/2000/svg"
   xmlns="http://www.w3.org/2000/svg"
   xmlns:xlink="http://www.w3.org/1999/xlink"
   id="svg8"
   version="1.1"
   viewBox="0 0 198.14687 112.09626"
   height="112.09626mm"
   width="198.14687mm">
  <defs
     id="defs2">
    <linearGradient
       id="linearGradient2506">
      <stop
         id="stop2502"
         offset="0"
         style="stop-color:#000000;stop-opacity:1;" />
      <stop
         style="stop-color:#000000;stop-opacity:0.75"
         offset="0.74034131"
         id="stop2510" />
      <stop
         id="stop2512"
         offset="0.8845911"
         style="stop-color:#000000;stop-opacity:0.24705882;" />
      <stop
         id="stop2504"
         offset="1"
         style="stop-color:#000000;stop-opacity:0;" />
    </linearGradient>
    <clipPath
       id="clipPath925"
       clipPathUnits="userSpaceOnUse">
      <ellipse
         ry="210.52904"
         rx="210.52901"
         style="opacity:1;fill:#ffe002;fill-opacity:1;stroke:none;stroke-width:0.55402374;stroke-opacity:1"
         id="ellipse927"
         cx="454.26547"
         cy="773.06964" />
    </clipPath>
    <clipPath
       id="clipPath979"
       clipPathUnits="userSpaceOnUse">
      <path
         id="path981"
         d="M 245.34037,658.11777 300.36986,863.71579 762.61758,804.59816 605.29796,643.00994 Z"
         style="fill:none;stroke:#000000;stroke-width:0.99277532px;stroke-linecap:butt;stroke-linejoin:miter;stroke-opacity:1" />
    </clipPath>
    <filter
       height="1.24"
       y="-0.11999999"
       width="1.24"
       x="-0.12000001"
       id="filter1008"
       style="color-interpolation-filters:sRGB">
      <feGaussianBlur
         id="feGaussianBlur1010"
         stdDeviation="4.52001" />
    </filter>
    <filter
       id="filter1128"
       style="color-interpolation-filters:sRGB">
      <feColorMatrix
         id="feColorMatrix1106"
         type="luminanceToAlpha"
         result="fbSourceGraphic" />
      <feFlood
         id="feFlood1108"
         flood-color="rgb(134,39,24)"
         result="result1"
         flood-opacity="1" />
      <feComposite
         id="feComposite1110"
         in2="fbSourceGraphic"
         operator="out"
         result="result2" />
      <feColorMatrix
         id="feColorMatrix1112"
         values="1 0 0 0 0 0 1 0 0 0 0 0 1 0 0 0 0 0 1 0 "
         result="fbSourceGraphic"
         in="result2" />
      <feTurbulence
         id="feTurbulence1114"
         numOctaves="5"
         baseFrequency="0.035"
         type="fractalNoise" />
      <feColorMatrix
         id="feColorMatrix1116"
         result="result0"
         values="1 0 0 0 0 0 1 0 0 0 0 0 1 0 0 -1.5 0 0 4.7 -1 " />
      <feFlood
         id="feFlood1118"
         flood-opacity="1"
         flood-color="rgb(145,199,195)"
         result="result1" />
      <feBlend
         id="feBlend1120"
         in2="fbSourceGraphic"
         mode="normal"
         in="result1"
         result="result3" />
      <feComposite
         id="feComposite1122"
         in2="result0"
         operator="out"
         result="result4" />
      <feComposite
         id="feComposite1124"
         result="result5"
         in2="fbSourceGraphic"
         operator="atop" />
      <feComposite
         id="feComposite1126"
         operator="in"
         in2="SourceGraphic" />
    </filter>
    <radialGradient
       gradientUnits="userSpaceOnUse"
       gradientTransform="matrix(1.3746352,-0.33201598,0.27774624,1.149944,-94.664411,9.2030654)"
       r="45.200096"
       fy="188.57201"
       fx="112.88111"
       cy="188.57201"
       cx="112.88111"
       id="radialGradient2508"
       xlink:href="#linearGradient2506" />
  </defs>
  <metadata
     id="metadata5">
    <rdf:RDF>
      <cc:Work
         rdf:about="">
        <dc:format>image/svg+xml</dc:format>
        <dc:type
           rdf:resource="http://purl.org/dc/dcmitype/StillImage" />
        <dc:title></dc:title>
      </cc:Work>
    </rdf:RDF>
  </metadata>
  <g
     transform="translate(-9.1817878,-114.70782)"
     id="layer1">
    <ellipse
       cy="170.75595"
       cx="108.1012"
       id="ellipse879"
       style="opacity:1;fill:#ffe002;fill-opacity:1;stroke:none;stroke-width:0.11894763;stroke-opacity:1;filter:url(#filter1008)"
       rx="45.200096"
       ry="45.200104" />
    <ellipse
       ry="45.200104"
       rx="45.200096"
       style="opacity:1;fill:#d4aa00;fill-opacity:1;stroke:none;stroke-width:0.11894763;stroke-opacity:1;filter:url(#filter1128)"
       id="ellipse1012"
       cx="108.1012"
       cy="170.75595" />
    <path
       id="path815"
       d="m 70.730072,145.56008 a 100.54165,20.108331 10 0 0 -61.4867336,7.75069 100.54165,20.108331 10 0 0 95.5224416,37.26172 100.54165,20.108331 10 0 0 102.50598,-2.34397 100.54165,20.108331 10 0 0 -55.12645,-28.30539 c 0.0401,0.16183 0.0795,0.32382 0.11786,0.48622 a 98.530822,19.706164 10 0 1 53.0279,27.46992 98.530822,19.706164 10 0 1 -100.45548,2.29728 98.530822,19.706164 10 0 1 -93.612069,-36.51662 98.530822,19.706164 10 0 1 59.225189,-7.67667 c 0.09298,-0.14168 0.186874,-0.28269 0.281362,-0.42318 z m 81.693798,15.55977 c 0.0853,0.38969 0.16559,0.78098 0.24064,1.17376 a 90.796149,18.15923 10 0 1 45.00965,24.24259 90.796149,18.15923 10 0 1 -92.5699,2.11667 90.796149,18.15923 10 0 1 -86.263831,-33.64988 90.796149,18.15923 10 0 1 50.587982,-7.38773 c 0.20248,-0.33939 0.408877,-0.67579 0.619731,-1.00893 a 95.574897,19.114979 10 0 0 -55.913636,7.56688 95.574897,19.114979 10 0 0 90.803744,35.42115 95.574897,19.114979 10 0 0 97.44184,-2.22837 95.574897,19.114979 10 0 0 -49.95622,-26.24614 z M 69.313008,147.80849 a 89.888191,17.977638 10 0 0 -49.578418,7.35217 89.888191,17.977638 10 0 0 85.40116,33.31358 89.888191,17.977638 10 0 0 91.64425,-2.0957 89.888191,17.977638 10 0 0 -44.07175,-23.85683 c 0.13942,0.75075 0.26019,1.5067 0.36154,2.26764 a 80.899367,16.179875 10 0 1 34.85766,20.02825 80.899367,16.179875 10 0 1 -82.47951,1.88613 80.899367,16.179875 10 0 1 -76.860799,-29.98213 80.899367,16.179875 10 0 1 39.61273,-6.91232 c 0.35468,-0.67824 0.726367,-1.34503 1.113137,-2.00079 z m 83.833442,17.59363 c 0.0326,0.27366 0.0646,0.54743 0.0922,0.82225 a 75.333494,15.0667 10 0 1 29.2078,17.62678 75.333494,15.0667 10 0 1 -76.80522,1.75638 75.333494,15.0667 10 0 1 -71.573092,-27.91948 75.333494,15.0667 10 0 1 33.470225,-6.56446 c 0.121292,-0.25173 0.24633,-0.50097 0.372022,-0.74984 a 78.472389,15.694479 10 0 0 -36.933387,6.76925 78.472389,15.694479 10 0 0 74.555202,29.08286 78.472389,15.694479 10 0 0 80.00539,-1.82966 78.472389,15.694479 10 0 0 -32.39114,-18.99408 z"
       style="opacity:0.5;fill:#d3bc5f;fill-opacity:1;stroke:none;stroke-width:0.11832526;stroke-opacity:1" />
    <path
       clip-path="url(#clipPath979)"
       id="path815-5"
       d="m 252.3457,576.17383 a 379.99994,75.999991 0 0 0 -223.773434,69.20312 379.99994,75.999991 0 0 0 380.000004,76 379.99994,75.999991 0 0 0 380,-76 379.99994,75.999991 0 0 0 -223.76368,-69.17578 c 0.25543,0.57603 0.5086,1.15307 0.75782,1.73242 A 372.39996,74.47999 0 0 1 780.9707,645.37695 372.39996,74.47999 0 0 1 408.57227,719.85742 372.39996,74.47999 0 0 1 36.171875,645.37695 372.39996,74.47999 0 0 1 251.57617,577.93359 c 0.2531,-0.58836 0.51004,-1.17483 0.76953,-1.75976 z m 314.28516,4.29883 c 0.57325,1.39449 1.12888,2.79821 1.66602,4.21093 A 343.16655,68.63331 0 0 1 751.73828,645.37695 343.16655,68.63331 0 0 1 408.57227,714.00977 343.16655,68.63331 0 0 1 65.404297,645.37695 343.16655,68.63331 0 0 1 248.84961,584.67773 c 0.5309,-1.39616 1.07835,-2.78374 1.64453,-4.16211 a 361.22796,72.24559 0 0 0 -203.15039,64.86133 361.22796,72.24559 0 0 0 361.22852,72.2461 361.22796,72.24559 0 0 0 361.22656,-72.2461 361.22796,72.24559 0 0 0 -203.16797,-64.90429 z m -318.08398,5 A 339.7349,67.946978 0 0 0 68.835938,645.37695 339.7349,67.946978 0 0 0 408.57227,713.32422 339.7349,67.946978 0 0 0 748.30664,645.37695 339.7349,67.946978 0 0 0 568.60938,585.50391 c 1.01166,2.70285 1.95732,5.43731 2.83398,8.20312 A 305.76139,61.152283 0 0 1 714.33203,645.37695 305.76139,61.152283 0 0 1 408.57227,706.5293 305.76139,61.152283 0 0 1 102.81055,645.37695 305.76139,61.152283 0 0 1 245.7168,593.65039 c 0.87502,-2.75727 1.82086,-5.48307 2.83008,-8.17773 z m 323.58398,10.46484 c 0.30103,0.99719 0.59962,1.99521 0.88281,3 A 284.72502,56.945008 0 0 1 693.29688,645.37695 284.72502,56.945008 0 0 1 408.57227,702.32227 284.72502,56.945008 0 0 1 123.8457,645.37695 284.72502,56.945008 0 0 1 244.11719,598.97656 c 0.28625,-1.01657 0.58807,-2.02636 0.89258,-3.03515 a 296.58856,59.317716 0 0 0 -133.02735,49.43554 296.58856,59.317716 0 0 0 296.58985,59.31836 296.58856,59.317716 0 0 0 296.58789,-59.31836 296.58856,59.317716 0 0 0 -133.0293,-49.43945 z"
       style="opacity:0.25;fill:#000000;fill-opacity:1;stroke:none;stroke-width:0.44721359;stroke-opacity:1"
       transform="matrix(0.26056371,0.04594441,-0.04594441,0.26056371,31.449908,-16.163787)" />
    <ellipse
       cy="170.75595"
       cx="108.1012"
       id="ellipse2500"
       style="opacity:1;fill:url(#radialGradient2508);fill-opacity:1;stroke:none;stroke-width:0.11894763;stroke-opacity:1"
       rx="45.200096"
       ry="45.200104" />
  </g>
</svg>
